Coordinates
version=1
nRows=17
nColumns=24
inDegrees=yes

Units are S.I. units (second, meters, Newtons, ...)
Angles are in degrees.

endheader
time	pelvis_tilt	pelvis_list	pelvis_rotation	pelvis_tx	pelvis_ty	pelvis_tz	hip_flexion_r	hip_adduction_r	hip_rotation_r	knee_angle_r	ankle_angle_r	subtalar_angle_r	mtp_angle_r	hip_flexion_l	hip_adduction_l	hip_rotation_l	knee_angle_l	ankle_angle_l	subtalar_angle_l	mtp_angle_l	lumbar_extension	lumbar_bending	lumbar_rotation
      2.40500000	    -11.75849149	      9.12143170	     -3.14996092	     -2.40194135	     -0.03800218	     -0.28798229	     14.38190132	    -14.95464492	     -7.21935709	    -57.91394720	    -27.70577785	    -18.12432053	      6.36185440	     31.08059248	      9.55783263	     -7.59428675	    -22.38495246	     -3.71216231	    -15.91199381	     -1.04292922	      8.94960667	     -9.09981980	      3.28776672
      2.41000000	    -11.76258125	      9.09988730	     -2.97921413	     -2.39494020	     -0.03695393	     -0.28884218	     15.37574559	    -14.85767174	     -7.05627652	    -59.06084657	    -26.84283960	    -18.93143961	      6.49482312	     30.48511582	      9.72038677	     -7.45552735	    -22.17141157	     -3.25291144	    -15.65164636	     -0.87927273	      8.84917714	     -9.12797499	      3.03205368
      2.41500000	    -11.80515422	      9.02858774	     -2.85606393	     -2.38799657	     -0.03589544	     -0.28965831	     16.42167863	    -14.68630873	     -6.85379680	    -60.12016106	    -25.82638484	    -19.44504941	      6.67704803	     29.92594776	      9.79499839	     -7.35499831	    -21.95409531	     -2.75595391	    -15.32938301	     -0.67757193	      8.79128613	     -9.08492513	      2.84993666
      2.42000000	    -11.83201463	      8.91993026	     -2.73457533	     -2.38104756	     -0.03474416	     -0.29047420	     17.42169621	    -14.47336813	     -6.68014349	    -61.05051952	    -24.77910691	    -19.76332366	      6.91673887	     29.32221945	      9.83275955	     -7.22755937	    -21.69314104	     -2.27198530	    -15.00131032	     -0.46704421	      8.71591297	     -8.99890981	      2.65792752
      2.42500000	    -11.84638006	      8.76403972	     -2.62993453	     -2.37421644	     -0.03354452	     -0.29126177	     18.40377589	    -14.20935497	     -6.52886691	    -61.88304033	    -23.71399652	    -19.86968587	      7.25074352	     28.71672287	      9.80581343	     -7.12458696	    -21.44586122	     -1.82159185	    -14.65829657	     -0.24446870	      8.60917570	     -8.85963172	      2.46640747
      2.43000000	    -11.85182836	      8.58874243	     -2.52329936	     -2.36737911	     -0.03229910	     -0.29205182	     19.34956276	    -13.92887228	     -6.40524819	    -62.59880474	    -22.67716552	    -19.80397026	      7.69659030	     28.08451831	      9.75930827	     -7.01075733	    -21.16775656	     -1.38712572	    -14.31150704	     -0.01116196	      8.49549636	     -8.69683405	      2.26692300
      2.43500000	    -11.84713902	      8.38466787	     -2.41977369	     -2.36046289	     -0.03099731	     -0.29284262	     20.24548628	    -13.62107328	     -6.31185023	    -63.18620343	    -21.68927904	    -19.58767054	      8.21948251	     27.41303314	      9.68550843	     -6.86460100	    -20.84899896	     -0.96196289	    -13.97437963	      0.21321331	      8.39033449	     -8.49866851	      2.06757342
      2.44000000	    -11.82594678	      8.17440244	     -2.31823789	     -2.35364938	     -0.02969669	     -0.29362352	     21.11566103	    -13.31250504	     -6.23439531	    -63.68867982	    -20.72235728	    -19.22241133	      8.88192989	     26.73819682	      9.59909366	     -6.74043427	    -20.53909374	     -0.58100987	    -13.65317203	      0.43276914	      8.24917834	     -8.29334363	      1.86498057
      2.44500000	    -11.77968619	      8.00486438	     -2.22047952	     -2.34685265	     -0.02837696	     -0.29450111	     21.91081549	    -13.06042729	     -6.09525279	    -63.94570254	    -20.56913282	    -19.19905695	     13.41047466	     26.01130653	      9.57235428	     -6.55150286	    -20.14541939	     -0.46554936	    -13.57067231	      1.13935159	      8.08061773	     -8.11520533	      1.68593238
      2.45000000	    -11.72944836	      7.78987804	     -2.12109019	     -2.34001020	     -0.02706084	     -0.29524867	     22.70258701	    -12.75005748	     -6.06105016	    -64.25626482	    -19.65675721	    -18.67301698	     13.92597167	     25.28399863	      9.47821024	     -6.39899661	    -19.79846934	     -0.08263482	    -13.22966989	      1.26372094	      7.91997424	     -7.89958711	      1.49579869
      2.45500000	    -11.66736979	      7.57057367	     -2.00524365	     -2.33318016	     -0.02573702	     -0.29601316	     23.44797374	    -12.44382893	     -6.05149726	    -64.46442960	    -18.75881773	    -18.05910802	     14.64480184	     24.53679864	      9.38933198	     -6.20786830	    -19.43019677	      0.22655285	    -12.95828208	      1.36020895	      7.74739166	     -7.68659346	      1.27320282
      2.46000000	    -11.57264749	      7.33885932	     -1.88947955	     -2.32632021	     -0.02438345	     -0.29692155	     24.09407016	    -12.13935810	     -6.02445571	    -64.43219596	    -18.50762192	    -17.82277829	     18.41301116	     23.73250045	      9.31464921	     -5.94035277	    -19.01882939	      0.46869604	    -12.87470006	      1.31146892	      7.54563371	     -7.43515454	      1.07647271
      2.46500000	    -11.52961135	      7.06641809	     -1.77018453	     -2.31953531	     -0.02314018	     -0.29768656	     24.81403703	    -11.76817381	     -6.06679950	    -64.46631410	    -17.65832728	    -17.22919314	     18.81704041	     23.00787412	      9.16197095	     -5.75814511	    -18.64665005	      0.79464886	    -12.62963391	      1.40254763	      7.38896155	     -7.15401361	      0.87090433
      2.47000000	    -11.44844783	      6.84767658	     -1.61366606	     -2.31268827	     -0.02188084	     -0.29846638	     25.45052314	    -11.47736096	     -6.13364032	    -64.40917084	    -16.73214696	    -16.55211629	     19.43373144	     22.21622583	      9.07810497	     -5.54185394	    -18.22257382	      1.03416407	    -12.38932413	      1.46376486	      7.20345107	     -6.94348335	      0.63402196
      2.47500000	    -11.31659975	      6.64298462	     -1.45388225	     -2.30586468	     -0.02060373	     -0.29940612	     25.98243224	    -11.22579822	     -6.19080604	    -64.12495873	    -16.43400005	    -16.35575043	     23.09671488	     21.34760299	      9.03621576	     -5.23863545	    -17.74992867	      1.23323553	    -12.30278618	      1.31752822	      6.96468527	     -6.72606857	      0.40639672
      2.48000000	    -11.27194436	      6.39915836	     -1.27365208	     -2.29905947	     -0.01948293	     -0.30020054	     26.61189749	    -10.91034408	     -6.30853180	    -63.90971330	    -15.51891103	    -15.77172940	     23.51551578	     20.60071528	      8.91432278	     -5.06330106	    -17.32491665	      1.51117929	    -12.02305110	      1.39989237	      6.81990711	     -6.49020001	      0.17364043
      2.48500000	    -11.10492424	      6.19563651	     -1.14320038	     -2.29228003	     -0.01825150	     -0.30100328	     27.08996854	    -10.62303272	     -6.35712529	    -63.57264718	    -14.72334409	    -15.26270386	     24.69734957	     19.68052656	      8.83876727	     -4.84557385	    -16.80342415	      1.65872094	    -11.92264841	      1.40799733	      6.54374463	     -6.28003399	     -0.01813388
